<svg width="110" height="110" viewBox="0 0 110 110" fill="none" xmlns="http://www.w3.org/2000/svg">
<g clip-path="url(#clip0_1_2)">
<path d="M50 100H60V110H50V100Z" fill="#E70000"/>
<path d="M40 90H50V100H40V90Z" fill="#E70000"/>
<path d="M30 80H40V90H30V80Z" fill="#E70000"/>
<path d="M20 70H30V80H20V70Z" fill="#E70000"/>
<path d="M10 60H20V70H10V60Z" fill="#E70000"/>
<path d="M0 40H10V50H0V40Z" fill="#E70000"/>
<path d="M0 30H10V40H0V30Z" fill="#E70000"/>
<path d="M0 20H10V30H0V20Z" fill="#E70000"/>
<path d="M10 10H20V20H10V10Z" fill="#E70000"/>
<path d="M20 0H30V10H20V0Z" fill="#E70000"/>
<path d="M30 0H40V10H30V0Z" fill="#E70000"/>
<path d="M40 0H50V10H40V0Z" fill="#E70000"/>
<path d="M50 10H60V20H50V10Z" fill="#E70000"/>
<path d="M60 100H50V110H60V100Z" fill="#E70000"/>
<path d="M70 90H60V100H70V90Z" fill="#E70000"/>
<path d="M80 80H70V90H80V80Z" fill="#E70000"/>
<path d="M90 70H80V80H90V70Z" fill="#E70000"/>
<path d="M100 60H90V70H100V60Z" fill="#E70000"/>
<path d="M110 40H100V50H110V40Z" fill="#E70000"/>
<path d="M110 30H100V40H110V30Z" fill="#E70000"/>
<path d="M110 20H100V30H110V20Z" fill="#E70000"/>
<path d="M100 10H90V20H100V10Z" fill="#E70000"/>
<path d="M90 0H80V10H90V0Z" fill="#E70000"/>
<path d="M80 0H70V10H80V0Z" fill="#E70000"/>
<path d="M70 0H60V10H70V0Z" fill="#E70000"/>
<path d="M60 10H50V20H60V10Z" fill="#E70000"/>
<path d="M110 50H100V60H110V50Z" fill="#E70000"/>
<path d="M0 50H10V60H0V50Z" fill="#E70000"/>
<path d="M60 80H70V90H60V80Z" fill="#FF191B"/>
<path d="M70 70H80V80H70V70Z" fill="#FF191B"/>
<path d="M80 60H90V70H80V60Z" fill="#FF191B"/>
<path d="M90 50H100V60H90V50Z" fill="#FF191B"/>
<path d="M90 40H100V50H90V40Z" fill="#FF191B"/>
<path d="M90 30H100V40H90V30Z" fill="#FF191B"/>
<path d="M80 30H90V40H80V30Z" fill="#FF191B"/>
<path d="M60 30H70V40H60V30Z" fill="#FF191B"/>
<path d="M50 30H60V40H50V30Z" fill="#FF191B"/>
<path d="M40 30H50V40H40V30Z" fill="#FF191B"/>
<path d="M30 30H40V40H30V30Z" fill="#FF191B"/>
<path d="M20 30H30V40H20V30Z" fill="#FF191B"/>
<path d="M20 40H30V50H20V40Z" fill="#FF191B"/>
<path d="M30 50H40V60H30V50Z" fill="#FF191B"/>
<path d="M30 40H40V50H30V40Z" fill="#FF191B"/>
<path d="M40 40H50V50H40V40Z" fill="#FF191B"/>
<path d="M50 40H60V50H50V40Z" fill="#FF191B"/>
<path d="M60 40H70V50H60V40Z" fill="#FF191B"/>
<path d="M70 40H80V50H70V40Z" fill="#FF191B"/>
<path d="M80 40H90V50H80V40Z" fill="#FF191B"/>
<path d="M80 50H90V60H80V50Z" fill="#FF191B"/>
<path d="M70 50H80V60H70V50Z" fill="#FF191B"/>
<path d="M60 50H70V60H60V50Z" fill="#FF191B"/>
<path d="M50 50H60V60H50V50Z" fill="#FF191B"/>
<path d="M40 50H50V60H40V50Z" fill="#FF191B"/>
<path d="M40 60H50V70H40V60Z" fill="#FF191B"/>
<path d="M50 60H60V70H50V60Z" fill="#FF191B"/>
<path d="M60 60H70V70H60V60Z" fill="#FF191B"/>
<path d="M70 60H80V70H70V60Z" fill="#FF191B"/>
<path d="M60 70H70V80H60V70Z" fill="#FF191B"/>
<path d="M50 70H60V80H50V70Z" fill="#FF191B"/>
<path d="M50 80H60V90H50V80Z" fill="#FF191B"/>
<path d="M20 20H30V30H20V20Z" fill="#FF191B"/>
<path d="M30 20H40V30H30V20Z" fill="#FF191B"/>
<path d="M40 20H50V30H40V20Z" fill="#FF191B"/>
<path d="M50 20H60V30H50V20Z" fill="#FF191B"/>
<path d="M70 20H80V30H70V20Z" fill="#FF191B"/>
<path d="M80 20H90V30H80V20Z" fill="#FF191B"/>
<path d="M90 20H100V30H90V20Z" fill="#FF191B"/>
<path d="M30 10H40V20H30V10Z" fill="#FF191B"/>
<path d="M40 10H50V20H40V10Z" fill="#FF191B"/>
<path d="M60 10H70V20H60V10Z" fill="#FF191B"/>
<path d="M70 10H80V20H70V10Z" fill="#FF191B"/>
<path d="M80 10H90V20H80V10Z" fill="#FF191B"/>
<path d="M40 80H50V90H40V80Z" fill="#FA0E11"/>
<path d="M40 70H50V80H40V70Z" fill="#FA0E11"/>
<path d="M30 60H40V70H30V60Z" fill="#FA0E11"/>
<path d="M20 50H30V60H20V50Z" fill="#FA0E11"/>
<path d="M50 90H60V100H50V90Z" fill="#FA0E11"/>
<path d="M30 70H40V80H30V70Z" fill="#FA0E11"/>
<path d="M20 60H30V70H20V60Z" fill="#FA0E11"/>
<path d="M10 50H20V60H10V50Z" fill="#FA0E11"/>
<path d="M10 40H20V50H10V40Z" fill="#FA0E11"/>
<path d="M10 30H20V40H10V30Z" fill="#FA0E11"/>
<path d="M10 20H20V30H10V20Z" fill="#FA0E11"/>
<path d="M20 10H30V20H20V10Z" fill="#FA0E11"/>
<path d="M60 20H70V30H60V20Z" fill="white"/>
<path d="M70 30H80V40H70V30Z" fill="white"/>
</g>
<defs>
<clipPath id="clip0_1_2">
<rect width="110" height="110" fill="white"/>
</clipPath>
</defs>
</svg>
