<svg width="60" height="60" viewBox="0 0 60 60" fill="none" xmlns="http://www.w3.org/2000/svg">
<path d="M24 6H18V12H24V6Z" fill="black"/>
<path d="M18 6H12V12H18V6Z" fill="black"/>
<path d="M30 12H24V18H30V12Z" fill="black"/>
<path d="M36 12H30V18H36V12Z" fill="black"/>
<path d="M42 6H36V12H42V6Z" fill="black"/>
<path d="M48 6H42V12H48V6Z" fill="black"/>
<path d="M54 6H48V12H54V6Z" fill="black"/>
<path d="M60 12H54V18H60V12Z" fill="black"/>
<path d="M60 18H54V24H60V18Z" fill="black"/>
<path d="M12 6H6V12H12V6Z" fill="black"/>
<path d="M6 12H0V18H6V12Z" fill="black"/>
<path d="M6 18H0V24H6V18Z" fill="black"/>
<path d="M6 24H0V30H6V24Z" fill="black"/>
<path d="M60 24H54V30H60V24Z" fill="black"/>
<path d="M12 30H6V36H12V30Z" fill="black"/>
<path d="M18 36H12V42H18V36Z" fill="black"/>
<path d="M24 42H18V48H24V42Z" fill="black"/>
<path d="M30 48H24V54H30V48Z" fill="black"/>
<path d="M36 48H30V54H36V48Z" fill="black"/>
<path d="M42 42H36V48H42V42Z" fill="black"/>
<path d="M48 36H42V42H48V36Z" fill="black"/>
<path d="M54 30H48V36H54V30Z" fill="black"/>
</svg>
